<svg width="150" height="150" viewBox="0 0 150 150" fill="none" xmlns="http://www.w3.org/2000/svg">
<g clip-path="url(#clip0_4487_18)">
<path d="M23.4385 76.9325C25.3272 92.8088 39.491 105.557 55.8389 117.479L87.4727 140.084L73.6035 149.999L55.8389 137.31C38.2515 124.503 23.4385 110.691 23.4385 93.1034V76.9325ZM89.9512 22.6337C92.666 22.3386 95.2045 22.3974 97.8604 22.9286C100.221 23.4598 102.582 24.0495 104.942 24.7577C105.237 24.8167 105.473 24.935 105.65 24.994C111.847 26.8826 117.867 29.3024 123.769 32.3124C122.293 36.5618 111.965 37.6836 110.549 37.8016C111.906 39.5132 114.916 43.5268 118.93 50.078C120.7 53.0286 121.998 55.8023 122.529 57.0419C122.706 57.5139 122.766 58.0454 122.707 58.5175C122.53 59.6979 121.939 61.6458 120.228 63.4755H120.109C120.114 63.5035 122.767 81.1269 123.651 87.0243C123.769 87.9686 123.591 88.913 123.237 89.8573C122.175 92.6313 120.582 97.3534 119.343 100.186C118.752 101.484 116.628 101.012 115.979 102.016C114.031 104.967 110.017 105.557 107.598 105.203C104.116 104.672 102.05 103.432 100.044 101.839C97.9193 100.068 97.8599 98.6514 97.9189 97.412C98.037 96.1726 98.1551 94.5791 98.0371 92.9266C98.0371 90.8019 92.5487 85.1947 88.3584 78.2303C90.3058 78.1123 91.1914 77.5809 91.1914 77.5809C90.7193 77.4629 90.1874 77.3449 89.6562 77.1678C85.9973 76.1645 82.5155 74.7481 79.3877 72.6825C77.7353 71.5612 76.2007 69.9677 74.9023 68.1971C73.3679 65.8954 71.4786 61.4685 73.3672 55.2714C70.9475 59.1666 71.0069 64.3014 73.1904 68.6688C66.9935 76.4595 66.9348 90.9788 97.3291 112.403L110.136 121.552C106.477 125.388 102.227 128.988 97.7422 132.529L55.7803 102.547C38.7831 90.1525 24.3828 76.8139 23.4385 60.1112C28.5731 45.7693 46.2197 28.7719 88.8896 22.7518L89.9512 22.6337ZM92.0762 36.621C92.0762 36.621 104.942 40.2805 113.854 57.16C113.972 57.4551 114.031 57.8093 113.972 58.1044C113.443 60.1019 111.862 61.2812 111.848 61.2919C111.848 61.2919 109.899 59.7569 107.598 58.5175C112.614 64.8326 113.5 67.8431 114.444 72.5057L115.565 79.3514C115.801 80.9449 116.628 80.5912 116.864 82.3026C116.164 81.6611 115.118 81.6533 115.094 81.6532C113.795 81.5942 111.376 81.8309 110.077 84.0145C108.608 86.4248 109.421 89.3033 109.428 89.326C109.43 89.295 109.675 85.7204 112.261 84.4276C114.09 83.5425 115.978 83.8373 117.513 85.0175L117.631 84.9589C119.328 86.3053 120.33 86.3162 120.346 86.3163L116.805 62.826C118.752 60.7603 119.283 59.0487 119.401 58.1044C119.401 57.8093 119.401 57.5142 119.283 57.2782C118.752 55.8615 116.451 50.9036 108.72 44.5887C100.929 38.2736 92.0762 36.621 92.0762 36.621ZM93.9648 46.1825C93.7878 47.658 94.8501 50.4906 95.7354 51.494C96.5616 52.4974 100.575 52.4979 100.575 52.4979L104.529 55.2128L102.346 51.7303C101.933 51.0811 101.519 50.4321 101.047 50.078C99.1583 48.6615 96.3846 46.7137 93.9648 46.1825ZM114.148 39.0409C114.148 39.0409 118.811 38.5103 123.769 40.4579C123.414 43.7629 118.516 45.3563 118.516 45.3563C116.863 42.6414 114.208 39.0409 114.208 39.0409H114.148ZM73.6631 20.2137C78.0303 20.2138 82.3979 20.4502 86.7061 20.9813C63.1579 22.0437 38.134 30.8372 23.4385 43.7626V32.3124C39.3142 24.2267 56.4889 20.2137 73.6631 20.2137ZM30.6973 7.99597C33.0578 7.11073 34.4158 7.87759 34.416 10.12C34.416 11.5365 33.5896 12.7178 32.9404 13.3671C33.8846 13.4852 34.7109 14.193 34.7109 15.7274L34.7695 15.786C34.7695 18.0878 33.3529 19.9174 30.9922 20.9208C28.4546 21.9831 25.9171 23.1638 23.4385 24.4032V19.2684C23.4385 17.97 24.1467 16.0225 25.6221 15.3143C27.2155 14.6061 28.8089 13.8981 30.4023 13.2489C31.1695 12.8948 31.6415 12.3633 31.6416 11.6552C31.6416 10.9469 31.2286 10.7693 30.4023 11.0643C28.8679 11.6545 25.5038 13.1893 25.3857 13.1893C24.2055 13.7205 23.5565 14.488 23.4385 16.0223V11.1239C25.7991 10.0026 28.2187 8.94025 30.6973 7.99597ZM113.559 6.81628C117.041 8.05571 120.464 9.47176 123.828 11.0653V14.0468C121.427 12.8778 118.967 11.8242 116.45 10.829V12.7772C118.693 13.6625 120.877 14.6655 123.061 15.6688V18.62C120.877 17.5576 118.693 16.5541 116.45 15.6688V17.7938C118.988 18.7972 121.467 19.9187 123.887 21.1581V24.2274C120.464 22.5158 117.041 20.9804 113.559 19.6229V6.81628ZM31.9365 16.3768C31.9365 15.7276 31.4645 15.4323 30.6973 15.7274C29.163 16.3176 27.6286 16.9665 26.1533 17.6747V20.036C27.6877 19.3278 29.1629 18.6784 30.6973 18.0292C31.5234 17.7341 31.9364 17.085 31.9365 16.3768ZM101.933 3.45203C103.939 6.521 105.946 9.64936 107.952 12.8954V5.10437C108.896 5.34044 109.9 5.69502 110.844 5.99011V18.7382C110.018 18.4431 109.132 18.1475 108.247 17.8524C106.122 14.4294 103.998 11.0652 101.873 7.81921V15.9052C100.87 15.6691 99.9259 15.4332 98.9229 15.1971V2.74402C99.926 2.98006 100.929 3.21599 101.933 3.45203ZM43.918 3.80554C46.6325 3.15657 48.4033 4.2787 48.4033 6.93445C48.4032 8.76386 47.5177 10.2984 45.9834 11.3016C46.9276 12.541 47.813 13.8392 48.6982 15.1376C47.5179 15.4327 46.3962 15.7282 45.2158 16.0233C44.4487 14.843 43.6226 13.6626 42.8555 12.4823C41.8523 12.7774 40.8489 13.072 39.8457 13.3671V17.5575L39.7861 17.6171C38.8419 17.9122 37.8382 18.2659 36.835 18.62V5.87195C39.1957 5.10468 41.5572 4.39574 43.918 3.80554ZM88.3574 0.972534C89.5377 1.09057 90.7182 1.26814 91.8984 1.44519C93.728 5.87162 95.5582 10.3568 97.3877 14.9012C96.2664 14.6061 95.1448 14.4293 94.0234 14.1932C93.6693 13.3079 93.3746 12.4814 93.0205 11.6552C91.0729 11.301 89.1248 11.0065 87.1182 10.7704V10.829C86.8231 11.5371 86.4693 12.3044 86.1152 13.0126C84.9939 12.8945 83.9309 12.8357 82.8096 12.7177C84.6391 8.7633 86.5279 4.86787 88.3574 0.972534ZM53.5967 14.0751C52.5344 14.2521 51.5306 14.4298 50.5273 14.6659V2.21179C51.5306 2.03473 52.5934 1.85858 53.5967 1.68152V14.0751ZM123.887 14.0751L123.828 14.1346V14.0468C123.848 14.0562 123.867 14.0656 123.887 14.0751ZM61.7402 0.38269C64.278 0.146609 66.5804 0.855055 67.7607 1.97644C67.1706 2.7437 66.5208 3.57008 65.9307 4.39636C64.9864 3.45213 63.3343 2.98013 61.5049 3.1571C60.0297 3.33414 59.2034 3.80589 59.2031 4.45496C59.2031 5.16317 60.029 5.16394 62.6846 5.16394C65.2814 5.28198 67.9375 5.57706 67.9375 8.41003C67.9373 11.2427 65.3993 12.718 61.8584 13.0721C59.4387 13.3672 56.4879 12.9537 55.3076 11.7733C55.9567 10.8291 56.5476 9.88547 57.1377 8.94128C58.4951 10.1803 60.5014 10.4757 62.0947 10.2987L62.0361 10.2391C63.57 10.0621 64.6323 9.64917 64.6328 8.94128C64.6328 8.115 63.7469 8.05554 60.9141 8.05554C58.3764 8.05552 56.0752 7.81932 56.0752 5.22253C56.0752 2.62573 58.3764 0.736909 61.7402 0.38269ZM69.9443 0.0877686C72.5411 -0.030272 75.1972 -0.030272 77.7939 0.0877686C80.3315 0.146841 81.7479 1.44526 81.748 3.62878C81.748 4.98613 80.922 5.81311 80.2139 6.10828C81.276 6.58053 82.1025 7.64273 82.1025 9.11804C82.1025 11.3017 80.6852 12.4822 78.1475 12.3641H78.0889C75.374 12.3051 72.6592 12.3051 69.9443 12.3641V0.0877686ZM45.4521 7.70105C45.452 6.816 44.8619 6.40317 43.7998 6.69812C42.5015 7.05221 41.144 7.40613 39.8457 7.81921V10.6522C41.144 10.2391 42.5015 9.88521 43.7998 9.53113C44.862 9.23599 45.4521 8.52728 45.4521 7.70105ZM73.0137 9.58972C74.607 9.58972 76.2592 9.59029 77.8525 9.64929C78.6788 9.64929 79.1514 9.23601 79.1514 8.58679C79.1514 7.87855 78.6788 7.40613 77.8525 7.40613C76.2593 7.34712 74.607 7.34753 73.0137 7.34753V9.58972ZM90.0693 4.45496C89.4792 5.69437 88.889 6.99289 88.2988 8.2323C89.4791 8.40935 90.6595 8.5865 91.8398 8.76355C91.2497 7.28809 90.6595 5.8714 90.0693 4.45496ZM77.5576 2.86218C76.0233 2.80317 74.548 2.80261 73.0137 2.80261V4.86804C74.548 4.86805 76.0233 4.92761 77.5576 4.92761C78.4429 4.92761 78.915 4.63195 78.915 3.92371C78.9148 3.21575 78.3837 2.80261 77.5576 2.80261V2.86218Z" fill="#6B0046"/>
</g>
<defs>
<clipPath id="clip0_4487_18">
<rect width="150" height="150" fill="white"/>
</clipPath>
</defs>
</svg>
