<?xml version="1.0" encoding="UTF-8"?><svg id="uuid-79ed3ddb-f493-430f-8fba-0d0ce4829069" xmlns="http://www.w3.org/2000/svg" viewBox="0 0 150 150"><path d="M134.1,18.23c-1.65-1.46-3.52-3.11-5.66-5.22-5.02-4.95-11.54-7.68-18.37-7.68-3.73,0-5.91,1.32-7.5,2.28-1.21.73-1.79,1.05-2.87,1.06-1.46,0-3.54-.67-5.74-1.39-3.3-1.07-7.03-2.28-11.28-2.28-2.7,0-5.22.49-7.68,1.48-2.45-1-4.98-1.48-7.68-1.48-4.25,0-7.98,1.21-11.28,2.28-2.2.71-4.28,1.39-5.75,1.39-1.07,0-1.65-.32-2.86-1.06-1.59-.96-3.77-2.28-7.5-2.28-6.82,0-13.35,2.73-18.37,7.68-2.14,2.11-4.01,3.76-5.66,5.22-4.89,4.32-8.43,7.43-7.47,14.03.59,4.01,3.11,7.04,5.79,10.24,1.6,1.91,3.41,4.08,5.06,6.72,2.32,3.71,6.67,3.05,6.67,3.05-1.77,3.02-7.77,13.57-7.77,28.7,0,29.43,21.56,51.65,47.46,56.02,3.69,5.13,9.35,8.02,9.35,8.02,0,0,5.63-2.88,9.32-7.97,28.01-4.52,47.49-29.12,47.49-56.07,0-16.7-7.77-28.7-7.77-28.7h0c.38.06,4.37.63,6.67-3.05,1.66-2.65,3.47-4.81,5.06-6.72,2.68-3.2,5.2-6.22,5.79-10.24.97-6.59-2.57-9.71-7.47-14.03Z" fill="#fff"/><path d="M44.27,109.61c2.72.21,4.01-3.23,5.6-9.48,4.96-19.51,11.16-17.93,15.95-18.44,4.79-.51,8.89-11.35,3.79-14.09-2-1.1-4.6-2-6.72-4.67-1-1.4-.29-2.97,1.37-4.33-9.73,6.34-17.45,20.08-20.49,31.32-.39,1.91-.74,3.88-1.03,5.91-.05.33-.52.31-.55-.01-.79-8.97.52-23.71,6.05-30.62-3.62-.78-6.83-3.44-7.35-7.35,6.38,4.92,9.14,3.9,13.3.28-10.33.36-5.45-5.88-13.3-7.8,1.35-1.07,2.42-4.12,6.74-3.95-1.66-2.21-3.68-3.24-6.24-2.33,10.06-10.62,21.17,15.48,28.18,5.04,4.42-6.64-2.87-13.46-15.13-14.95-.32-.04-.33-.51,0-.55,5.02-.66,11.47-.02,16.76,2.58.57.28,1.19-.29.95-.88-1.38-3.4-5.58-7.3-11.69-7.39-.3,0-.38-.41-.11-.53,3.8-1.66,6.85-.59,9.89.32-4.84-2.91.71-9.01,2.67-10.42-5.15-3.67-9.78-4.39-13.26-4.08-3.15.85-5.99,2.15-9.33,2.17-5.51,0-6.22-3.33-10.37-3.33-10.1,0-19.53,8.21-20.61,21.41-1.49-2.26-1.47-6.33-.05-9.46-9.49,8.18-1.26,10.65,5.67,21.72,3.96-5.13,2.78-10.99,3.9-16.74,2.45-14.44,13.95-18.5,13.07-3.45,2.66-2.77,7.83-5.66,13.5-6.42-14.54,8.21-24.89,23.03-18.64,40.06-1.64-1.23-3.45-4.33-3.8-5.86-6.31,8.75-8.88,28.22-2.74,35.5.94-3.53,4.07-11.95,9.01-17.36.21-.24.59.01.46.3-.63,1.35-1.18,2.76-1.65,4.22l.03.02c-2.99,10.29-.18,32.81,6.2,33.65Z" fill="#afb0b3"/><path d="M104.79,38.69c-4.42-2.54-12.41-3.72-20.46,2.11-3.84,3.1-2.66,6.05-1.37,7.36,4.19,4.28,10.16-9.05,21.68-8.95.29,0,.39-.37.14-.52Z" fill="#afb0b3"/><path d="M95.91,58.11h0c1.48.87,7.57,2.32,13.3-.28-6.38,4.92-9.14,3.9-13.3.28Z" fill="#afb0b3"/><path d="M120.09,58.8c3.97,9.73,4.82,23.98-.23,29.97-.35-1.32-1.01-3.34-1.96-5.62,4.13-7.66,4.31-18.81,2.2-24.35Z" fill="#afb0b3"/><path d="M94.67,19.07c14.54,8.21,24.89,23.03,18.64,40.06h0c1.89-9.27.12-27.08-18.64-40.06Z" fill="#afb0b3"/><path d="M126.56,43.54h-.01c5.41-12.08-7.36-31.54-16.4-31.54h0c10.1,0,19.53,8.21,20.61,21.41,1.49-2.26,1.47-6.33.05-9.46,8.85,7.62,2.29,10.29-4.25,19.58Z" fill="#afb0b3"/><path d="M93.24,108.7c-.77-6.01-1.31-13.03-6.35-17.09,2.14,5.99,2.91,13.26,1.61,19.69,1.64-.73,3.23-1.6,4.74-2.6Z" fill="#afb0b3"/><path d="M71.57,105.73c0-9.22,12.22-6.33,12.22-8.51,0-2.99-19.25-.18-19.25-4.75,0-1.13.66-2.17,2.21-2.94-8.48,3.25-9.07,11.94-9.99,19.16,5.37,3.55,11.66,5.45,18.24,5.45,1.11,0,2.2-.06,3.29-.16-5.05-.07-6.72-3.6-6.72-8.25Z" fill="#afb0b3"/><path d="M45.29,38.69c4.42-2.54,12.41-3.72,20.46,2.11,3.84,3.1,2.66,6.05,1.37,7.36-4.19,4.28-10.16-9.05-21.68-8.95-.29,0-.39-.37-.14-.52Z" fill="#fff"/><path d="M54.17,58.11h0c-1.48.87-7.57,2.32-13.3-.28,6.38,4.92,9.14,3.9,13.3.28Z" fill="#fff"/><path d="M29.99,58.8c-3.97,9.73-4.82,23.98.23,29.97.35-1.32,1.01-3.34,1.96-5.62-4.13-7.66-4.31-18.81-2.2-24.35Z" fill="#fff"/><path d="M55.41,19.07c-14.54,8.21-24.89,23.03-18.64,40.06h0c-1.89-9.27-.12-27.08,18.64-40.06Z" fill="#fff"/><path d="M23.52,43.54h.01c-5.41-12.08,7.36-31.54,16.4-31.54h0c-10.1,0-19.53,8.21-20.61,21.41-1.49-2.26-1.47-6.33-.05-9.46-8.85,7.62-2.29,10.29,4.25,19.58Z" fill="#fff"/><path d="M89.55,76.34c-.9,0-1.62.71-1.62,1.6s.72,1.64,1.62,1.64,1.64-.73,1.64-1.64-.73-1.6-1.64-1.6ZM60.45,76.34c-.9,0-1.64.71-1.64,1.6s.73,1.64,1.64,1.64,1.62-.73,1.62-1.64-.72-1.6-1.62-1.6ZM83.15,75.08c-.9,0-1.6.71-1.6,1.6s.7,1.62,1.6,1.62,1.64-.72,1.64-1.62-.73-1.6-1.64-1.6ZM66.85,78.29c.9,0,1.6-.72,1.6-1.62s-.7-1.6-1.6-1.6-1.64.71-1.64,1.6.73,1.62,1.64,1.62ZM59.82,70.7c0,1.09.86,1.99,1.97,1.99s1.98-.9,1.98-1.99-.9-1.99-1.98-1.99-1.97.9-1.97,1.99ZM94.83,72.9c-.88,0-1.6.7-1.6,1.6s.71,1.64,1.6,1.64,1.64-.75,1.64-1.64-.75-1.6-1.64-1.6ZM90.18,70.7c0-1.09-.86-1.99-1.97-1.99s-1.98.9-1.98,1.99.9,1.99,1.98,1.99,1.97-.9,1.97-1.99ZM55.17,72.9c-.88,0-1.64.7-1.64,1.6s.75,1.64,1.64,1.64,1.6-.75,1.6-1.64-.71-1.6-1.6-1.6Z"/><path d="M78.83,36.14c-.57.28-1.19-.29-.95-.88,1.38-3.4,5.58-7.3,11.69-7.39.3,0,.38-.41.11-.53-5.74-2.5-9.77,1.21-14.67,1.21s-8.92-3.72-14.67-1.21c-.27.12-.19.53.11.53,6.11.09,10.31,3.99,11.69,7.39.24.59-.38,1.16-.95.88-5.29-2.6-11.74-3.24-16.76-2.58-.32.04-.32.51,0,.55,12.27,1.49,19.56,8.31,15.13,14.95-7,10.44-18.11-15.65-28.18-5.04,2.56-.91,4.58.12,6.24,2.33-4.32-.17-5.39,2.88-6.74,3.95,7.85,1.92,2.97,8.16,13.3,7.8-4.15,3.63-6.91,4.65-13.3-.28.52,3.91,3.72,6.57,7.35,7.35-5.53,6.91-6.84,21.65-6.05,30.62.03.33.5.34.55.01,3.79-25.79,15.24-42.98,32.28-42.98s28.49,17.19,32.28,42.98c.05.33.52.31.55-.01.79-8.97-.52-23.71-6.05-30.62,3.62-.78,6.83-3.44,7.35-7.35-6.38,4.92-9.14,3.9-13.3.28,10.33.36,5.45-5.88,13.3-7.8-1.35-1.07-2.42-4.12-6.74-3.95,1.66-2.21,3.68-3.24,6.24-2.33-10.06-10.62-21.17,15.48-28.18,5.04-4.42-6.64,2.87-13.46,15.13-14.95.32-.04.33-.51,0-.55-5.02-.66-11.47-.02-16.76,2.58ZM52.17,50.08c.56,0,1.01.45,1.01,1.01s-.45,1.01-1.01,1.01-1.01-.45-1.01-1.01.45-1.01,1.01-1.01ZM47.77,51.1s.46-1.1,1.56-1.71c.39.04.74.08,1.07.14-1.79,3.64,3.16,6.68,5.66,3.3.49.39,1.08.76,1.89,1.08-5.09,4.72-9.36.36-10.18-2.8ZM97.83,50.08c.56,0,1.01.45,1.01,1.01s-.45,1.01-1.01,1.01-1.01-.45-1.01-1.01.45-1.01,1.01-1.01ZM93.94,52.82c2.5,3.38,7.45.34,5.66-3.3.33-.05.69-.1,1.07-.14,1.1.61,1.56,1.71,1.56,1.71-.82,3.16-5.09,7.52-10.18,2.8.8-.32,1.4-.69,1.89-1.08Z"/><path d="M126.09,15.38c-4.39-4.33-10.09-6.72-16.03-6.72-5.32,0-6.05,3.33-10.36,3.33-6.06,0-14.72-6.82-24.71-1.86-9.99-4.96-18.65,1.87-24.71,1.86-4.3,0-5.04-3.33-10.36-3.33-5.94,0-11.64,2.39-16.03,6.72-8.54,8.41-13.12,9.91-12.17,16.39.45,3.08,2.58,5.63,5.05,8.58,1.67,1.99,3.55,4.25,5.33,7.09.58.92,1.57,1.51,2.66,1.56.05,0,.11,0,.16,0,1.03,0,2.01-.48,2.64-1.3,1.44-1.86,2.32-3.79,2.88-5.72l1.55,1.93h0c-.33,1.92-.47,3.85-.42,5.8-6.34,8.79-10.07,19.58-10.07,31.24,0,27.03,20.05,49.37,46.09,52.97,1.73,2.73,4.15,5.21,7.38,7.17,3.23-1.96,5.65-4.44,7.38-7.17,26.04-3.59,46.09-25.94,46.09-52.97,0-11.66-3.73-22.45-10.07-31.24.04-1.95-.1-3.88-.42-5.8h0s1.55-1.93,1.55-1.93c.56,1.93,1.45,3.86,2.88,5.72.63.82,1.61,1.3,2.64,1.3.05,0,.11,0,.16,0,1.09-.05,2.08-.64,2.66-1.56,1.78-2.84,3.67-5.1,5.33-7.09,2.47-2.95,4.6-5.5,5.05-8.58.95-6.48-3.64-7.97-12.17-16.39ZM75,114.15c-6.58,0-12.87-1.91-18.24-5.45,1.16-9.07,1.8-20.47,18.24-20.47s17.08,11.4,18.24,20.47c-5.37,3.55-11.66,5.45-18.24,5.45ZM75,59.51c-2.64,0-5.06.38-7.09.96-.44.13-.73-.44-.37-.73,1.31-1.05,3.61-2.3,7.47-2.3s6.16,1.25,7.47,2.3c.36.29.07.85-.37.73-2.03-.58-4.46-.96-7.09-.96ZM125.06,45.68c-3.96-5.13-2.78-10.99-3.9-16.74-2.45-14.44-13.95-18.5-13.07-3.45-2.66-2.77-7.83-5.66-13.5-6.42,14.54,8.21,24.89,23.03,18.64,40.06,1.64-1.23,3.45-4.33,3.8-5.86,6.31,8.75,8.88,28.22,2.74,35.5-.94-3.53-4.07-11.95-9.01-17.36-.21-.24-.59.01-.46.3,7.95,16.99,2.91,44.01-5.75,42.97-6.24-1.01-5.43-10.72-9.7-21.95-5.54-15.55-15.29-.26-17.48-19.14-.77-7.09,5.48-5.29,9.75-10.67,2.44-3.41-5.29-7.84-12.12-7.84s-14.55,4.43-12.12,7.84c4.27,5.39,10.53,3.59,9.75,10.67-2.19,18.88-11.94,3.59-17.48,19.14-4.28,11.23-3.47,20.94-9.7,21.95-8.67,1.04-13.71-25.98-5.75-42.97.14-.29-.24-.54-.46-.3-4.94,5.41-8.07,13.83-9.01,17.36-6.14-7.29-3.57-26.75,2.74-35.5.35,1.53,2.16,4.63,3.8,5.86-6.24-17.03,4.1-31.84,18.64-40.06-5.67.76-10.84,3.65-13.5,6.42.88-15.05-10.62-10.99-13.07,3.45-1.12,5.74.06,11.61-3.9,16.74-6.93-11.08-15.16-13.54-5.67-21.72-1.42,3.13-1.45,7.2.05,9.46,1.08-13.2,10.52-21.41,20.61-21.41,4.15,0,4.86,3.33,10.37,3.33,7.63-.06,12.7-6.76,24.69.39,11.99-7.15,17.06-.45,24.69-.39,5.51,0,6.22-3.33,10.37-3.33,10.1,0,19.53,8.21,20.61,21.41,1.49-2.26,1.47-6.33.05-9.46,9.49,8.18,1.26,10.65-5.67,21.72Z"/><path d="M84.87,128.43c6.26-1.29,12.17-3.8,17.45-7.42-2.66-.7-5.88-2.51-8.06-6.98-.01-.02-.02-.04-.03-.07-2.76,1.61-5.7,2.86-8.76,3.73.62,3.35.49,7.09-.59,10.73Z" fill="#2026cb"/><path d="M64.53,117.7c-3.07-.87-6.01-2.12-8.76-3.73-.01.02-.02.04-.03.07-2.18,4.47-5.4,6.28-8.06,6.98,5.28,3.62,11.19,6.13,17.45,7.42-1.09-3.63-1.21-7.38-.59-10.73Z" fill="#2026cb"/><path d="M78.14,125.08c.52.3,1.74,1.18,1.58,2.65-.28,3.26-4.13,3.89-6.84,2.74-.19-.08-.29-.28-.26-.48.18-1.05.64-4.51-.09-8.8-.04-.25.14-.46.39-.51.78-.15.96-.13,1.73-.24,3.11-.41,4.47,1.01,4.47,2.5,0,1.09-.64,1.66-.99,1.9-.09.06-.08.19,0,.25ZM78.44,127.76c.14-1.5-1.26-2.42-4.05-2.25-.23.01-.41.2-.41.43-.01,1.52-.11,2.77-.17,3.38-.02.23.14.44.37.48,2.83.46,4.12-.51,4.27-2.04ZM74.34,124.49c1.99.21,3.66-.47,3.57-1.69-.1-1.26-1.57-1.71-3.77-1.36-.24.04-.4.25-.37.49.09.72.15,1.44.18,2.14,0,.22.18.39.39.42ZM74.6,117.71c-2.5,0-4.82,1.32-5.23,4.82-.22,1.55-.7,2.26-1.06,2.59-.16.14-.16.4,0,.54.36.33.84,1.04,1.06,2.59.17,3.67,2.69,5.66,5.23,5.76,3.65.14,3.09-1.02,4.82-.83.13.01.23-.1.2-.22-.08-.34-.13-.83-.16-1.15-.01-.14-.17-.21-.28-.14-.59.4-2.12,1.3-3.81,1.3-3.1,0-4.94-1.9-4.94-7.58s1.84-6.64,4.94-6.64c1.72,0,3.63,1.46,4.34,2.06.12.1.3.02.3-.13.02-.53.05-1.49.12-2.08.02-.15-.15-.26-.28-.18-1.45.92-2.54-.71-5.25-.71Z" fill="#fff"/></svg>