<svg width="100" height="100" viewBox="0 0 100 100" fill="none" xmlns="http://www.w3.org/2000/svg">
<path d="M94.2666 32.7534C95.64 31.8934 96.6666 31.4134 96.6666 31.4134C96.6666 31.4134 91.6333 29.42 81.2933 32.08C81.0267 31.58 79.38 29.7 75.6133 28.2867C84.3066 24.6134 84.8067 14.3534 84.9133 11.96C78.42 22.0734 67.1133 17.3334 67.1133 17.3334C67.1133 17.3334 69.1133 19.1267 69.1333 19.7534C69.1533 20.32 61.4666 19.5134 59.48 24.9534C58.92 24.38 57.7733 23.44 56.78 22.8734C62.6066 20.22 64.4267 16.9 65.2733 15.1667C65.2733 15.1667 55.58 16.88 53.7 17.1334C54.66 14.56 56.0266 13.1067 56.0266 13.1067C56.0266 13.1067 50.08 14.1734 46.5333 17.42C46.2933 17.4334 42.6933 17.5467 40.4 20.0134C37.7666 22.8534 35.98 21.6934 34.78 24.6C34.7333 24.6 31.2466 24.1067 29.28 24.9534C32.76 19.16 41.06 13.8534 41.06 13.8534C41.06 13.8534 39.2466 13.9867 36.62 14.5C29.18 15.94 24.46 18.9267 22.8733 19.5134C19.2733 20.8334 17.6466 15.3467 17.1466 13.86C15.38 17.58 15.2533 27.8934 15.1866 29.1067C14.8866 34.2534 14.22 38.54 3.33331 39.9734C6.40665 44.6134 10.14 44.08 11.3666 46.1534C12.7066 48.42 10.04 53.6934 12.8933 59.3334C13.6466 60.82 14.42 61.44 14.42 61.44C14.42 61.44 16.5333 57.82 17.0133 57.42C18.9933 65.6467 25.0533 65.92 25.1133 65.9267C25.1133 65.9267 24.58 63.9067 25.3733 63.26C26.4466 62.38 26.9266 61.6067 26.9666 61.4867C27.0733 61.52 28.2733 61.9134 28.9733 62.9334C29.5133 63.7134 29.5 64.7467 29.4666 65.0667C29.4666 65.0667 31.2066 65.52 33.8333 63.5067C33.7933 64.04 33.7666 65.3 33.76 65.86C33.7133 65.86 31.64 65.7067 30.0666 67.6334C28.9733 68.9734 28.5933 70.8067 29 72.8C29.1133 73.3534 29.42 73.8267 29.84 74.1534C31.3733 82.7067 38.2466 80.9934 38.2466 80.9934C37.7 80.4467 37.0333 78.8934 37.0333 78.8934C42.4466 80.8067 44.02 76.7934 44.02 76.7934C42.5266 76.6534 41.3933 75.0734 41.3933 75.0734C42.6666 74.34 43 73 43 73C47.68 73.06 47.1 66.7134 46.8066 66.12C49.1733 66.0534 52.3866 65.04 53.0666 64.9C52.8133 65.3534 51.74 68.9134 54.4466 71.3134C44.7933 70.1667 45 78.2734 45.12 79.0667C45.12 79.0667 48.1733 77.36 51.1 77.4934C51.1 77.4934 48.1733 83.4534 51.9933 85.9067C51.9933 85.9067 53.66 83.2067 55.0866 82.5267C55.0866 82.5267 54.4533 87.6667 60.5133 88.06C60.5133 88.06 59.86 85.3867 60.28 84.0734C60.28 84.0734 61.5266 83.7334 62.2533 81.9534C62.56 81.12 62.82 80.3934 64.06 79.6334C65.24 78.9067 66.08 78.2867 66.7533 77.7867C68.0466 76.8267 68.58 76.4334 70.2866 76.1534C72.4733 75.7934 74.2 74.6667 75.1533 72.9867C75.9133 71.6467 76.5333 69.3334 75.1933 65.9467C77.7066 64.4734 82.04 67.12 82.32 67.4067C83.8867 61.7334 75.2266 52.4934 92.78 53.5734C90.8333 47.3467 79.7333 41.8534 94.2533 32.7734L94.2666 32.7534ZM60.0066 39.42C60.1266 39.26 60.2466 39.0867 60.36 38.9134C61.3266 37.44 61.9133 35.7534 62.2 33.6C62.2733 33.0734 62.3 32.58 62.3066 32.1C63.1466 32.7867 67.8066 34.4334 68.0866 36.0667C65.5 37.02 62.7933 38.1334 60 39.4267L60.0066 39.42Z" fill="#D22630"/>
<path d="M33.0466 39.92C18.62 28.1666 29.9933 19.4133 35.22 16.3133C24.28 20.5733 20.22 25.7666 17.6333 19.1733C18.24 22.8533 21.6533 35.4133 33.0533 39.92H33.0466ZM31.3333 49.0533C31.5 47.8666 31.8066 46.6066 32.3866 45.3266C23.48 44.4666 8.93331 42.5533 6.68665 41.1466C11.94 44.7733 14.9133 42.9466 14 49.56C13.1933 55.4066 14.1733 57.4133 14.1733 57.4133C17.68 49.1866 25.0333 47.48 31.34 49.0533H31.3333ZM34.8333 41.72C20.4333 37.76 17.1666 22.5666 17.1666 22.5666C18.76 36.28 14.4533 39.92 8.79331 40.4466C8.79331 40.4466 20.7466 43.1533 32.86 44.38C33.36 43.4866 33.9933 42.5933 34.8333 41.7133V41.72ZM23.0466 57.1066C22.36 57.0066 21.7333 56.9133 21.2133 56.6933C20.5666 57.4466 20.6733 58.28 20.6733 58.28C20.6733 58.28 19.4533 59.3666 20.5 60.6733C20.5 60.6733 20.4933 59.2666 21.56 58.9533C22.2533 59.4733 22.9533 57.6 24.66 58.4266C23.0333 58.9733 21.5466 60.1866 21.8466 61.12C21.8466 61.12 21.0333 62.42 23.06 63.26C23.06 63.26 22.48 62.16 23 61.8C23.52 61.44 24.5 61.6466 25.14 59.96C25.6066 58.72 27.4133 59.0133 28.56 59.6533C26.7 57.6333 24.7066 57.3466 23.0533 57.1066H23.0466ZM31.86 61.0733C31.86 61.0733 32.1 62.36 31.2733 62.9733C32.6466 62.8733 33.2266 61.1266 32.8733 60.3C33.24 59.4266 33.1066 58.7333 31.5933 58.4866C30.08 58.24 30.0733 57.36 31.12 57.2066C31.2466 57.1866 31.4066 57.1533 31.5866 57.1066L31.5 56.6066C31.2733 55.3 31.1133 53.98 31.0866 52.6666C28.9733 54.8466 28.9533 55.92 27.1 55.94C25.0733 55.96 24.98 52.98 23.1533 53C21.3333 53.02 20.58 54.6133 20.58 54.6133C18.1133 55.0466 18.2333 56.6 19.1 57.2533C18.8933 56.0266 21 55.6733 21 55.6733C22.2933 56.96 26.6866 55.3666 30.0733 60.3333C30.8066 61.3066 31.4733 61.18 31.86 61.0733ZM70.1266 71.2933C70.1266 71.2933 69.4733 68.9333 68.78 67.48C64.8466 67.5866 66.7533 65.1733 59.5066 66.5933C61.44 65 62.7866 65.5533 63.9133 65.1C63.9133 65.1 63.6333 61.0466 59.4867 60.14C59.4867 60.14 55.9733 62.6333 55.08 66.1933C54.7133 67.7733 55.2667 67.5933 55.44 68.6666C55.62 69.74 56.1 69.6866 57.7866 69.4266C61.1866 68.8266 61.5333 69.4933 62.4666 69.7533C64.3733 70.2866 65.62 69.5866 66.5466 69.42C65.9266 71.5133 63.4266 71.0533 61.5 72.5533C59.92 73.8 58.9466 72.86 57.2066 73.8266C55.4666 74.7933 54.1466 73.2733 52.5866 73.26C51.8333 73.2533 51.1733 73.4733 50.8066 73.82C47.88 73.86 47.06 75.8466 47.1066 76.64C47.1066 76.64 47.7533 75.4133 50.9466 75.3266C52.0266 76.4133 53.1333 76.3333 55 75.9866C56.88 75.64 56.56 74.2666 61.7666 74.1133C60 75.2333 59.24 74.7266 56.8 76.44C55.0533 77.5733 53.0266 76.7666 53.0066 79.0866C53.0066 79.0866 51.02 81.02 52.0533 82.9066C52.0533 82.9066 52.8333 81.02 54.3333 80.0266C54.3333 80.0266 54.7866 80.8533 56.0733 80.38C56.0866 78.52 57.34 79.0266 58.2666 77.58C59.4066 75.6866 59.68 76.7466 61.7533 75.6066C63.8266 74.4666 63.7866 73.7 65.4466 74.0066C63.2266 74.92 63.9733 75.4466 60.84 77.0866C57.7133 78.7266 56.52 80.04 57.46 81.8466C57.46 81.8466 55.9533 84.3266 58.4933 85.4C58.4933 85.4 57.1933 83.6133 58.9333 82.4C60.5533 82.4333 59.44 79.78 62.8667 77.6666C66.2933 75.5533 66.6133 74.4133 69.9333 73.8733C73.2466 73.3266 74.5933 70.6133 73.0666 66.76C73.0666 66.76 71.2466 68.6666 70.14 71.2933H70.1266ZM89.38 51.06C79.1733 41.0333 88.1867 33.6266 91.64 32.6C91.64 32.6 74.46 34.0466 55.2733 44.36C54.2067 44.9266 56.1 47.5333 56.1 47.5333C52.3066 50.58 50.22 47.7733 42.88 52.9333C43.4933 49.82 50.7133 48.1466 50.7133 48.1466C53.3733 41.3666 59.1 39.46 59.9266 33.3066C60.9266 25.8933 53.3733 23.8933 53.3733 23.8933C53.1933 23.92 50.9533 24.3933 48.3866 24.9333C53.94 19.7066 55.6333 22.4733 60.8533 17.6333C54.7666 20.08 53.7333 18.4266 46.44 22.0933C46.44 22.0933 48.2133 20.34 50.6533 18.8933C50.6533 18.8933 51.1733 17.3866 52.3533 15.84C47.06 18.6133 47.1866 21.94 42.1066 23.32C42.1066 23.32 44.0533 21.64 44.4133 21.16C44.4133 21.16 44.4866 20.4466 44.88 19.7C42.2466 20.26 42.0533 22.7933 38.7066 24.0266C35.36 25.2533 38.18 27.22 34.46 26.8866C30.2533 26.5133 26.9466 26.66 31.8 32.4533C31.8 32.4533 31.42 31.0866 31.62 30.3133C31.62 30.3133 33.02 32.4066 34.6666 33.2333C33.64 29.0733 40.84 28.8933 45.8733 31.8733C45.8733 31.8733 43.8266 31.3466 42.38 31.4333C38.12 32.4466 38.7133 36.54 34.3933 35.2C34.3933 35.2 36.0266 39.0666 40.5666 36.8466C38.74 35.6866 40.8733 31.4666 49.1533 33.76C49.1533 33.76 51.68 31.3066 46.94 28.2C46.94 28.2 49.0266 26.5 53.5133 27.2933C53.5133 27.2933 51.0733 27.74 49.64 28.86C55.6933 31.3933 50.2933 35.7666 48.04 36.56C44.82 37.7133 40.92 38.8266 38.7533 41.4533C40.0066 41.1 42.6466 41.7266 43.0466 42.4066C43.0466 42.4066 37.66 41.16 35.3333 45.1666C35.3333 45.1666 37.5866 43.9733 39.1533 45.86C34.3466 45.0466 33.3066 48.5 33.0266 51.9466C33.0266 51.9466 35.4866 50.04 37.8666 52.1133C35.9133 51.7666 33.3933 52.7066 33.1266 54.32C32.86 55.9333 35.02 60.3533 35.02 60.3533C35.02 60.3533 35.7933 56.4533 38.52 52.6C37.6 43.2466 44.4466 44.4933 52.4466 37.2733C49.0333 43.68 40.52 42.9066 40.2066 50.8866C40.2066 50.8866 40.9933 50.1466 42.5333 49.86C42.5333 49.86 35.9333 55.6266 36.0733 66.6666C36.0933 69.12 35.2733 68.9266 34.26 68.2933C33.2466 67.66 30.5733 68.9066 31.2733 72.3133C31.2733 72.3133 32.08 69.54 32.86 70.1866C33.6466 70.84 35.3933 70.6933 34.5466 71.3533C33.7 72.02 30.86 74.12 32.7333 76.3266C32.7333 76.3266 33.04 78.14 35.0133 78.6866C35.0133 78.6866 33.78 77.3133 34.0333 76.6C34.2933 75.8866 35.1066 76.32 35.2 73.9866C35.3 72.2333 37.3933 70.94 37.4466 71.8666C37.5 72.7866 35.9533 73.24 36.4066 75.0933C36.5533 75.68 36.8866 75.9866 37.28 76.08C38.9533 77.8866 41.1733 77.3866 41.1733 77.3866C41.1733 77.3866 39.4533 76.7866 38.8333 75.4266C39.0266 75.16 39.1466 74.8266 39.1333 74.46C39.0533 72.9133 41.1266 73.6866 40.8533 71.4066C40.5733 69.12 39.4866 68.9 40.78 68.1266C41.9933 67.4 41.92 69.2933 43.4266 68.5933C44.12 69.66 43.92 70.7733 43.92 70.7733C43.92 70.7733 45.62 69.5133 44.54 67.5266C45.0733 66.2733 43.7333 64.8066 39.2866 66.62C39.2866 66.62 39.7 65.46 41.2733 64.4666C41.2733 64.4666 41.66 61.76 44.0466 59.2733C44.4066 60 44 60.2666 43.3133 62.8466C46.6666 65.1866 50.32 62.5466 55.6666 62.18C55.6666 62.18 57.66 59.5 58.9133 58.8066C49.9266 55.58 47.48 58.9866 45.54 57.9C51.6333 53.98 65.8666 53.88 70.2133 67.5C73.64 62.8466 76.5867 62.5 80.6067 64.26C74.46 56.84 67.7066 52.5466 60.7066 49.92C69.58 50.8133 77.0533 57.1866 79.4867 60.2266C77.1267 54.28 82.74 52.2733 86.0933 52.36C77.9533 48.1066 68.4466 45.6933 60.5533 44.4C64.8066 42.86 84.7133 48.64 89.3867 51.0466L89.38 51.06ZM32.5266 29.2C32.1466 28.6066 32.1266 27.7666 34.3 28.3466C32.9466 29.08 33.0533 30.0133 32.5266 29.2ZM42.9733 26.1066C42.2533 26.68 42.1266 27.8133 40.1466 27.8333C37.7733 27.86 38.4133 25.9266 38.4533 25.7333C38.96 28.1933 42.8866 23.54 45.06 26.1733C45.06 26.1733 43.3466 25.8133 42.98 26.1L42.9733 26.1066ZM70.1266 29.2C64.0133 28.48 62.7466 26.08 65.84 24.6533C68.9333 23.2266 74.12 25.24 70.1733 27.7933C70.1733 27.7933 79.66 26.0066 81.5933 18.1733C79.66 19.92 76.2533 21.5466 70.8667 20.1666C72.0267 20.96 72.7733 22.7266 71.2 22.3666C67.4533 21.3066 59.8466 23.44 61.7466 28.4C62.9266 31.4866 71.7 31.9066 72.36 35.2066C74.8466 34.3933 77.1733 33.7266 79.2866 33.1866C76.6 30.64 72.48 29.48 70.1266 29.2Z" fill="white"/>
</svg>
