<?xml version="1.0" encoding="UTF-8"?><svg id="uuid-aa9ad367-9236-46ff-ac57-cef609419b3b" xmlns="http://www.w3.org/2000/svg" viewBox="0 0 150 150"><path d="M141.57,71.57c0-17.77-6.92-34.51-19.51-47.07-12.56-12.58-29.29-19.51-47.07-19.51s-34.51,6.92-47.07,19.51c-12.58,12.56-19.51,29.29-19.51,47.07s6.92,34.51,19.51,47.07c6.46,6.46,14,11.41,22.21,14.71v.73c0,3.2,1.04,5.92,3.02,7.9,1.97,1.97,4.7,3.02,7.9,3.02h7.88c2.29,0,4.35-.55,6.06-1.58,1.71,1.04,3.77,1.58,6.06,1.58h7.88c3.2,0,5.92-1.04,7.9-3.02,1.97-1.97,3.02-4.7,3.02-7.9v-.73c8.21-3.31,15.76-8.25,22.21-14.71,12.58-12.56,19.51-29.29,19.51-47.07Z" fill="#d7b45f"/><path d="M66.83,128.14h-3.66c-.64,0-.95.31-.95.95v3.66c0,.64.31.95.95.95h3.66c.64,0,.95-.31.95-.95v-3.66c0-.62-.31-.95-.95-.95Z" fill="#6c1d45"/><path d="M66.83,117.57h-3.66c-.64,0-.95.31-.95.95v3.08c0,.64.31.95.95.95h3.66c.64,0,.95-.31.95-.95v-3.08c0-.64-.31-.95-.95-.95Z" fill="#6c1d45"/><path d="M86.83,117.57h-3.66c-.64,0-.95.31-.95.95v14.22c0,.64.31.95.95.95h3.66c.64,0,.95-.31.95-.95v-14.22c0-.64-.31-.95-.95-.95Z" fill="#6c1d45"/><path d="M75,7.86c-35.19,0-63.71,28.51-63.71,63.71,0,27.45,17.38,50.86,41.72,59.8v2.73c0,2.44.73,4.42,2.17,5.86s3.42,2.17,5.88,2.17h7.88c2.44,0,4.42-.73,5.86-2.17.07-.07.13-.13.18-.2.07.07.13.13.18.2,1.44,1.44,3.42,2.17,5.88,2.17h7.88c2.44,0,4.42-.73,5.88-2.17,1.44-1.44,2.17-3.42,2.17-5.86v-2.73c24.34-8.96,41.72-32.35,41.72-59.8.02-35.19-28.49-63.71-63.69-63.71ZM74.13,122.94l-2.42,2.42,2.42,2.42v6.3c0,1.66-.44,2.95-1.35,3.84-.89.89-2.17,1.35-3.84,1.35h-7.88c-1.66,0-2.95-.44-3.84-1.35-.89-.89-1.35-2.17-1.35-3.84v-6.3l2.42-2.42-2.42-2.42v-5.77c0-1.66.44-2.95,1.35-3.84.89-.89,2.17-1.35,3.84-1.35h7.88c1.66,0,2.95.44,3.84,1.35.89.89,1.35,2.17,1.35,3.84v5.77ZM94.13,134.1c0,1.66-.44,2.95-1.35,3.84-.89.89-2.17,1.35-3.84,1.35h-7.88c-1.66,0-2.95-.44-3.84-1.35-.89-.89-1.35-2.17-1.35-3.84v-16.93c0-1.66.44-2.95,1.35-3.84.89-.89,2.17-1.35,3.84-1.35h7.88c1.66,0,2.95.44,3.84,1.35.89.89,1.35,2.17,1.35,3.84v16.93ZM94.95,111.47s-.09-.11-.13-.16c-1.44-1.44-3.42-2.17-5.86-2.17h-7.88c-2.44,0-4.42.73-5.88,2.17-.07.07-.13.13-.18.2-.07-.07-.13-.13-.18-.2-1.44-1.44-3.42-2.17-5.86-2.17h-7.88c-2.44,0-4.42.73-5.88,2.17-.04.04-.09.11-.13.16-14.67-7.32-24.7-22.43-24.7-39.9,0-24.63,19.97-44.6,44.6-44.6s44.6,19.97,44.6,44.6c0,17.46-10.03,32.58-24.65,39.9Z" fill="#6c1d45"/><path d="M17.24,67.31l.18-1.35,5.28-1.04-4.86-2.33.18-1.35,7.41-.31-.18,1.33-4.68.22,4.39,2.13-.16,1.22-4.77.95,4.48,1.38-.18,1.35-7.1-2.2Z" fill="#fff"/><path d="M19.3,55.93l.4-1.35,7.81-.64-.4,1.4-1.6.13-.84,2.86,1.29,1-.4,1.4-6.26-4.79ZM21.37,55.77l2.13,1.64.55-1.89-2.69.24Z" fill="#fff"/><path d="M21.21,50.09l.55-1.22,5.68-.84-4.37-2,.58-1.26,6.66,3.06-.55,1.22-5.68.84,4.37,2-.58,1.26-6.66-3.06Z" fill="#fff"/><path d="M24.83,42.77l.73-1.2,5.13,3.11,1.07-1.73,1.13.69-1.78,2.93-6.28-3.79Z" fill="#fff"/><path d="M27.2,38.88l.91-1.2,2.93.51-1.26-2.69.89-1.18,2.02,4.22,2.53,1.91-.84,1.11-2.53-1.91-4.64-.78Z" fill="#fff"/><path d="M33.66,30.9l1.02-.91,3.88,2.82-2.11-4.37.87-.75,4.08,2.64-2.29-4.22,1.02-.91,3.59,6.59-1,.89-4.13-2.66,2.13,4.44-1,.87-6.08-4.42Z" fill="#fff"/><path d="M43.71,22.93l1.2-.75,6.28,4.7-1.22.78-1.29-.98-2.53,1.6.29,1.6-1.22.78-1.51-7.72ZM45.35,24.19l.51,2.64,1.66-1.04-2.17-1.6Z" fill="#fff"/><path d="M49.01,19.85l1.33-.62c.73-.33,1.29-.51,1.66-.53.38-.02.73.09,1.04.31.33.22.6.53.78.95.2.44.27.84.2,1.24-.07.4-.29.75-.64,1.11l2.93,2.24-1.38.64-2.8-2.13-.11.04,1.29,2.82-1.26.58-3.04-6.66ZM51.48,21.86l.4-.18c.4-.18.67-.36.75-.53.11-.18.09-.38-.02-.62-.07-.16-.16-.24-.29-.33-.13-.07-.27-.11-.4-.09-.16.02-.4.09-.73.24l-.36.16.64,1.35Z" fill="#fff"/><path d="M55.01,17.25l1.4-.47c.78-.24,1.33-.36,1.71-.33s.71.18,1.02.42c.31.24.53.6.67,1.04.16.47.16.87.04,1.26s-.38.71-.75,1.02l2.66,2.55-1.44.47-2.53-2.44-.11.04.98,2.95-1.33.44-2.31-6.97ZM57.23,19.53l.42-.13c.42-.13.69-.29.82-.44.13-.16.13-.38.07-.62-.04-.16-.13-.27-.24-.36-.11-.09-.24-.13-.4-.13s-.4.04-.75.16l-.36.11.44,1.42Z" fill="#fff"/><path d="M60.93,15.45l1.35-.31,1.69,7.12-1.35.31-1.69-7.12Z" fill="#fff"/><path d="M64.35,14.63l1.33-.18,3.75,4.35-.64-4.75,1.38-.18.98,7.26-1.33.18-3.73-4.35.64,4.77-1.38.18-1-7.28Z" fill="#fff"/><path d="M79.42,15.01l-1,.95c-.6-.67-1.33-1.02-2.15-1.02-.71-.02-1.33.22-1.82.69s-.75,1.04-.75,1.73c-.02.71.22,1.31.73,1.82.49.51,1.11.75,1.86.78.49,0,.89-.09,1.22-.29s.6-.51.82-.93l-2.13-.04.02-1.31,3.66.04v.31c-.02.64-.2,1.24-.53,1.82s-.78,1-1.31,1.29-1.15.42-1.86.42c-.75-.02-1.44-.2-2.02-.53-.6-.33-1.04-.82-1.38-1.44-.33-.62-.49-1.29-.49-1.97.02-.98.36-1.8,1-2.51.78-.84,1.78-1.24,3-1.22.64.02,1.22.13,1.78.38.47.2.93.55,1.35,1.04Z" fill="#fff"/><path d="M84.3,14.48l1.4.24,1.51,7.7-1.42-.24-.31-1.58-2.93-.53-.84,1.38-1.42-.24,4.02-6.72ZM84.68,16.52l-1.4,2.31,1.93.33-.53-2.64Z" fill="#fff"/><path d="M90.27,15.72l1.35.44-.87,2.62,2.33.75.84-2.62,1.33.42-2.24,6.97-1.33-.42.98-3.06-2.33-.75-.98,3.06-1.35-.44,2.26-6.97Z" fill="#fff"/><path d="M103.25,22.2l-1.33.33c-.09-.62-.29-1.02-.62-1.18-.16-.09-.31-.11-.47-.09s-.24.11-.31.22-.07.22-.04.38c.02.18.18.62.47,1.31.27.64.42,1.04.47,1.2.11.38.18.71.16,1-.02.29-.09.55-.24.84-.29.53-.69.87-1.24,1.02s-1.11.07-1.71-.24c-.47-.24-.8-.58-1.02-.98s-.33-.91-.31-1.53l1.38-.09c0,.73.22,1.22.62,1.42.22.11.42.13.62.09s.36-.16.44-.31c.07-.16.11-.33.07-.53-.02-.2-.16-.55-.36-1.04-.4-.95-.62-1.64-.67-2.04-.04-.42.02-.78.18-1.11.24-.44.62-.75,1.13-.89.51-.13,1.02-.09,1.53.18.33.18.6.4.8.71.16.31.33.75.47,1.33Z" fill="#fff"/><path d="M105.45,22.35l3.33,2.22-.75,1.13-2.17-1.44-.73,1.11,2.17,1.44-.73,1.11-2.17-1.44-1.07,1.6,2.17,1.44-.75,1.13-3.33-2.22,4.04-6.08Z" fill="#fff"/><path d="M112.08,27.19l1.07.91-2.62,7.39-1.11-.93.55-1.51-2.26-1.95-1.44.75-1.11-.93,6.92-3.73ZM111.37,29.12l-2.37,1.26,1.49,1.26.89-2.53Z" fill="#fff"/><path d="M118.63,33.56l2.53,3.08-1.07.87-1.66-2.02-1.02.84,1.66,2.02-1.04.84-1.66-2.02-1.49,1.22,1.66,2.02-1.07.87-2.53-3.08,5.68-4.64Z" fill="#fff"/><path d="M123.55,40.13l.75,1.2-4.68,6.28-.78-1.22.98-1.29-1.6-2.53-1.6.31-.78-1.22,7.7-1.53ZM122.29,41.77l-2.64.51,1.04,1.66,1.6-2.17Z" fill="#fff"/><path d="M128.3,52.11l-1.29-.51c.36-.82.38-1.62.04-2.37-.29-.67-.75-1.11-1.38-1.38s-1.26-.24-1.89.02c-.64.29-1.09.75-1.35,1.42-.24.67-.22,1.33.07,2,.2.44.44.78.75,1s.71.33,1.2.36l-.84-1.95,1.2-.51,1.46,3.37-.29.13c-.58.24-1.22.33-1.86.27-.67-.07-1.22-.29-1.71-.67-.49-.36-.87-.87-1.15-1.53-.31-.69-.42-1.38-.36-2.06s.31-1.29.73-1.86c.42-.55.95-.98,1.6-1.26.89-.38,1.8-.42,2.71-.13,1.09.36,1.86,1.09,2.35,2.22.24.58.38,1.18.38,1.78.02.53-.11,1.09-.38,1.69Z" fill="#fff"/><path d="M130.14,54.04l.4,1.33-5.75,1.66.58,1.95-1.29.38-.95-3.28,7.01-2.04Z" fill="#fff"/><path d="M131.47,58.88l.75,3.93-1.33.27-.49-2.57-1.31.24.49,2.57-1.31.24-.49-2.57-1.89.36.49,2.57-1.35.27-.78-3.93,7.21-1.38Z" fill="#fff"/><path d="M131.79,68.58l-1-.95c.47-.4.69-.8.67-1.18-.02-.18-.09-.33-.18-.44-.11-.11-.22-.16-.36-.16s-.24.07-.33.16c-.13.13-.42.49-.84,1.11-.4.58-.64.91-.75,1.04-.27.31-.51.53-.75.67-.24.13-.53.22-.84.24-.6.04-1.11-.11-1.53-.49s-.67-.91-.73-1.58c-.04-.51.04-.98.27-1.4.22-.4.6-.78,1.11-1.09l.8,1.11c-.62.4-.91.84-.87,1.29.02.24.11.42.27.58s.31.22.51.2c.16-.02.33-.09.49-.22s.38-.42.69-.87c.58-.84,1.04-1.4,1.38-1.66s.67-.4,1.02-.44c.51-.04.95.11,1.35.47s.62.82.67,1.38c.02.36-.02.71-.16,1.07-.16.36-.44.75-.87,1.18Z" fill="#fff"/><path d="M35.21,102.82l1.33,1.6-5.66,4.66-.89-1.07,4.64-3.82-.95-1.15,1.53-.22Z" fill="#fff"/><path d="M34.3,112.98l-.44-1.24,2.66-.89c-.44-.44-.67-.95-.67-1.58s.22-1.18.69-1.64c.44-.47.98-.69,1.62-.69s1.18.22,1.62.67c.47.47.71,1.02.69,1.64,0,.64-.22,1.18-.64,1.6-.16.16-.33.29-.55.42s-.55.27-1.07.42l-3.91,1.29ZM37.5,109.96c.18.18.4.27.67.24s.49-.11.69-.31c.2-.2.31-.44.31-.71s-.09-.49-.27-.67-.4-.27-.67-.27-.49.11-.69.31c-.2.2-.29.42-.29.69-.04.31.04.53.24.71Z" fill="#fff"/><path d="M44.2,111.45l1.09.87-2.93,3.71.51.4-.8,1.02-.51-.4-.93,1.18-1.07-.84.93-1.18-2.51-1.97.8-1.02,5.41-1.75ZM41.29,115.15l1.53-1.93-2.84.89,1.31,1.04Z" fill="#fff"/><path d="M46.17,113.18l4.06,2.55-.4.62-6.41,3.97-.69-1.11,5.33-3.28-2.6-1.64.71-1.11Z" fill="#fff"/><path d="M102.16,117.02l-1.15.73c-.4-.69-.51-1.35-.36-1.97.16-.62.53-1.13,1.13-1.51.38-.24.75-.36,1.15-.38.38-.02.75.07,1.13.24s.64.44.82.75c.22.38.38.82.42,1.38.07.55-.02,1.29-.2,2.22l-.24,1.18,2.22-1.38.69,1.09-4.3,2.69-.36-.55.69-3.15c.18-.75.24-1.33.22-1.71s-.11-.69-.27-.91c-.16-.24-.36-.38-.6-.44-.27-.07-.51,0-.75.16s-.4.38-.47.69c-.04.24.02.55.22.89Z" fill="#fff"/><path d="M106.09,111.2c.42-.33.87-.51,1.33-.55.47-.02.95.09,1.44.4.49.29,1.04.82,1.64,1.58.6.75.98,1.42,1.15,1.97s.18,1.04.07,1.46c-.13.42-.4.8-.84,1.15-.44.33-.87.53-1.33.55-.44.02-.93-.09-1.42-.38-.49-.29-1.02-.8-1.62-1.55-.82-1.07-1.26-1.95-1.31-2.69-.04-.78.24-1.44.89-1.95ZM106.93,112.22c-.18.16-.31.33-.36.55s0,.51.16.87.44.8.89,1.35c.58.73,1.07,1.15,1.44,1.31.4.13.73.11,1-.11.27-.2.38-.51.31-.89-.07-.47-.38-1.07-.98-1.82-.6-.75-1.09-1.22-1.49-1.35-.36-.16-.69-.11-.98.09Z" fill="#fff"/><path d="M111.17,110.23l-.98.95c-.53-.6-.78-1.2-.78-1.86.02-.64.27-1.22.8-1.73.31-.31.67-.51,1.04-.62s.75-.09,1.15.02.71.29.98.55c.31.31.53.73.71,1.26.18.53.27,1.26.27,2.22l.02,1.2,1.86-1.82.91.93-3.64,3.55-.47-.49v-3.24c0-.78-.04-1.35-.16-1.71-.11-.38-.24-.64-.44-.84s-.42-.31-.69-.31-.51.11-.71.31c-.22.2-.31.47-.31.75.02.29.16.58.42.87Z" fill="#fff"/><path d="M113.88,103.61l1.22-.53,1.09,2.57c.4-.49.91-.73,1.53-.8.62-.04,1.18.13,1.69.55.49.4.75.93.82,1.55.07.62-.11,1.18-.51,1.66-.42.51-.95.78-1.58.82-.64.04-1.18-.11-1.64-.51-.18-.13-.33-.31-.47-.51s-.31-.53-.51-1.04l-1.64-3.77ZM117.16,106.57c-.16.2-.22.42-.2.69.02.24.16.47.38.64s.47.27.73.24c.27-.02.47-.13.64-.31.16-.2.24-.42.2-.69-.02-.27-.16-.49-.38-.67s-.47-.27-.71-.24c-.29,0-.51.11-.67.33Z" fill="#fff"/><path d="M103.87,59.14c3.93-12.18-11.29-22.1-19.24-24.37,0,0,1.13,2.22,1.55,3.33,0,0-15.24-8.12-29.34.51,0,0,2.84.6,3.99,1.02,0,0-11.96,1.49-18.04,14.36,0,0,3.66-1.31,5.48-1.69-5.97,5.75-14.02,22.86-2.02,39.32,0,0,.16-2.2.58-4.04,0,0,.42,9.54,13.4,15.31,0,0-.82-3.53-.87-6.7,0,0,4.33,12.25,21.52,9.54,0,0-3.86-2.88-5.13-4.9,5.44,3.55,13.07,4.53,20.75-1.53-11.65-1.91-12.91-6.66-12.91-8.12,5.48,1.04,8.96-.27,10.19-.84,18.71,1.4,21.59-18.91,10.07-31.2Z" fill="#6c1d45"/><path d="M78.55,71.31c1.02,2.53.29,4.59.29,4.59-2.73-8.12-7.7-8.23-7.7-8.23,1.26,2.64,4.75,9.19,9.76,13.09,1.33-7.03-2.35-9.45-2.35-9.45Z" fill="#fff"/><path d="M83.48,59.85c-1.29.02-2.31-1.15-2.13-2.44.33.67,1.31.95,1.95.51-.58-1.02-1.11-2.15-1.64-3.33-4.06,2.51-.36,8.65,3.75,6.15-.36-.36-.67-.73-.98-1.13-.31.16-.62.24-.95.24Z" fill="#fff"/><path d="M99.17,59.48c-3.31,0-4.73,4.15-11.03,3.04,4.37,3.73,3.77,6.12,3.77,6.12-14.89-12.56-33.91-2.24-33.91-2.24,13.67,1.69,10.87,22.41,32.13,22.21-4.04-6.66-2.97-13.05-6.44-15.38-1,7.7,2.91,12.96,2.91,12.96-11.49-2.02-18.35-18.71-18.35-18.71-2.73-.95-5.55-1.38-5.55-1.38,19.28-3.35,18.75,2.66,25.54,5.75,8.28,3.22,10.85,12.54,5.66,14.93,21.35,3.35,13.89-25.21,5.26-27.32ZM98.94,64.49c-1.35.04-2.84.71-2.86,2.46,0,.16-.2.24-.31.13-2.2-2.11.84-4.55,3.26-2.95.18.11.11.36-.09.36Z" fill="#fff"/><path d="M89.05,39.24c2.09,2.04,2.77,4.95,2.77,4.95-5.48-4.22-17.6-9.25-28.94-5.55,4.04.47,6.26,1.91,6.26,1.91-13.85-.09-20.37,8.74-20.37,8.74,4.17-1.29,7.46-.67,7.46-.67-1.71,1.18-19.95,14.65-10.94,36.26.42-6.75,4.64-10.25,4.64-10.25,0,0-5.17,15.13,6.75,23.12-1.15-7.3,2.37-13.07,2.37-13.07,0,0-1.04,16.86,15.58,18.71-1.8-1.18-5.39-6.95-3.4-12.25,6.81,13.56,18.24,9.08,18.24,9.08,0,0-9.92-2.57-8.9-10.01-6.35-2.64-9.41-5.95-11.56-9.21-2.26,2.02-4.22,5.64-4.22,5.64-1.71-5.55,0-12.45,0-12.45-6.01.11-9.65,3.95-9.65,3.95,0,0,.18-5.04,3.04-8.9-2.06-.8-4.68-1.35-8.06-1.64,7.01-4.86,14.62-7.52,22.19-7.86-1.71-2.44-1.55-4.06-1.55-4.06,3.46,4.08,6.97,4.93,6.97,4.93-3.66-3.75-1.29-8.39-1.29-8.39-7.52-5.66-17,1.82-17,1.82,8.1-12.49,19.62-4.66,19.62-4.66-2.2-3.66-6.04-6.17-6.04-6.17,12.69,3.73,9.1,16.73,17.77,16.73,4.04,0,2.84-5.46,1.51-7.92,3.22,2.42,3.35,4.99,3.35,4.99,1.33-4.3-3.31-9.76-3.31-9.76,7.48,5.02,6.7,10.94,6.7,10.94,1.33.13,1.97.93,1.97.93,4.48-9.23-10.3-19.13-11.98-19.88Z" fill="#fff"/></svg>